<mxfile host="65bd71144e">
    <diagram id="e8bY9OGwMt_BVmJVzVnI" name="Page-1">
        <mxGraphModel dx="2050" dy="780" grid="1" gridSize="10" guides="1" tooltips="1" connect="1" arrows="1" fold="1" page="1" pageScale="1" pageWidth="850" pageHeight="1100" math="0" shadow="0">
            <root>
                <mxCell id="0"/>
                <mxCell id="1" parent="0"/>
                <mxCell id="2" value="" style="whiteSpace=wrap;html=1;rounded=1;strokeColor=#FFFF00;" vertex="1" parent="1">
                    <mxGeometry x="-10" y="160" width="230" height="230" as="geometry"/>
                </mxCell>
                <mxCell id="4" value="Database" style="rounded=1;whiteSpace=wrap;html=1;" vertex="1" parent="1">
                    <mxGeometry x="560" y="190" width="120" height="60" as="geometry"/>
                </mxCell>
            </root>
        </mxGraphModel>
    </diagram>
</mxfile>